<svg preserveAspectRatio="none" width="100%" height="100%" overflow="visible" style="display: block;" viewBox="0 0 32 32" fill="none" xmlns="http://www.w3.org/2000/svg">
<g id="Icon">
<path id="Vector" d="M16 26.6667C16 26.6667 6.66667 20.6667 4 14.6667C4 13.2675 4.44025 11.9037 5.25838 10.7686C6.07652 9.63349 7.23107 8.78458 8.55848 8.34211C9.8859 7.89964 11.3189 7.88604 12.6545 8.30324C13.99 8.72044 15.1605 9.54729 16 10.6667C16.8395 9.54729 18.01 8.72044 19.3455 8.30324C20.6811 7.88604 22.1141 7.89964 23.4415 8.34211C24.7689 8.78458 25.9235 9.63349 26.7416 10.7686C27.5598 11.9037 28 13.2675 28 14.6667C25.3333 20.6667 16 26.6667 16 26.6667Z" stroke="var(--stroke-0, #664D92)" stroke-width="2.13333" stroke-linecap="round" stroke-linejoin="round"/>
</g>
</svg>
